<mxfile host="app.diagrams.net" modified="2024-01-10T07:56:27.392Z" agent="Mozilla/5.0 (Windows NT 10.0; Win64; x64) AppleWebKit/537.36 (KHTML, like Gecko) Chrome/120.0.0.0 Safari/537.36" etag="S0M25VnMXmkEsD6RFKwa" version="22.1.18" type="device">
  <diagram name="Page-1" id="Qyh_zZBqrxSlYUW0cNvO">
    <mxGraphModel dx="1050" dy="530" grid="1" gridSize="10" guides="1" tooltips="1" connect="1" arrows="1" fold="1" page="1" pageScale="1" pageWidth="827" pageHeight="1169" math="0" shadow="0">
      <root>
        <mxCell id="0" />
        <mxCell id="1" parent="0" />
        <mxCell id="ivMhix_a7MdcOeaRFhQM-3" value="" style="edgeStyle=orthogonalEdgeStyle;rounded=0;orthogonalLoop=1;jettySize=auto;html=1;" edge="1" parent="1" source="ivMhix_a7MdcOeaRFhQM-1" target="ivMhix_a7MdcOeaRFhQM-2">
          <mxGeometry relative="1" as="geometry" />
        </mxCell>
        <mxCell id="ivMhix_a7MdcOeaRFhQM-7" value="" style="edgeStyle=orthogonalEdgeStyle;rounded=0;orthogonalLoop=1;jettySize=auto;html=1;" edge="1" parent="1" source="ivMhix_a7MdcOeaRFhQM-1" target="ivMhix_a7MdcOeaRFhQM-6">
          <mxGeometry relative="1" as="geometry" />
        </mxCell>
        <mxCell id="ivMhix_a7MdcOeaRFhQM-1" value="" style="rounded=0;whiteSpace=wrap;html=1;" vertex="1" parent="1">
          <mxGeometry x="50" y="40" width="120" height="60" as="geometry" />
        </mxCell>
        <mxCell id="ivMhix_a7MdcOeaRFhQM-5" value="" style="edgeStyle=orthogonalEdgeStyle;rounded=0;orthogonalLoop=1;jettySize=auto;html=1;" edge="1" parent="1" source="ivMhix_a7MdcOeaRFhQM-2" target="ivMhix_a7MdcOeaRFhQM-4">
          <mxGeometry relative="1" as="geometry" />
        </mxCell>
        <mxCell id="ivMhix_a7MdcOeaRFhQM-2" value="" style="rounded=0;whiteSpace=wrap;html=1;" vertex="1" parent="1">
          <mxGeometry x="250" y="40" width="120" height="60" as="geometry" />
        </mxCell>
        <mxCell id="ivMhix_a7MdcOeaRFhQM-12" value="" style="edgeStyle=orthogonalEdgeStyle;rounded=0;orthogonalLoop=1;jettySize=auto;html=1;" edge="1" parent="1" source="ivMhix_a7MdcOeaRFhQM-4" target="ivMhix_a7MdcOeaRFhQM-10">
          <mxGeometry relative="1" as="geometry" />
        </mxCell>
        <mxCell id="ivMhix_a7MdcOeaRFhQM-4" value="" style="rounded=0;whiteSpace=wrap;html=1;" vertex="1" parent="1">
          <mxGeometry x="450" y="40" width="120" height="60" as="geometry" />
        </mxCell>
        <mxCell id="ivMhix_a7MdcOeaRFhQM-9" value="" style="edgeStyle=orthogonalEdgeStyle;rounded=0;orthogonalLoop=1;jettySize=auto;html=1;" edge="1" parent="1" source="ivMhix_a7MdcOeaRFhQM-6" target="ivMhix_a7MdcOeaRFhQM-8">
          <mxGeometry relative="1" as="geometry" />
        </mxCell>
        <mxCell id="ivMhix_a7MdcOeaRFhQM-14" value="" style="edgeStyle=orthogonalEdgeStyle;rounded=0;orthogonalLoop=1;jettySize=auto;html=1;" edge="1" parent="1" source="ivMhix_a7MdcOeaRFhQM-6" target="ivMhix_a7MdcOeaRFhQM-13">
          <mxGeometry relative="1" as="geometry" />
        </mxCell>
        <mxCell id="ivMhix_a7MdcOeaRFhQM-6" value="" style="rounded=0;whiteSpace=wrap;html=1;" vertex="1" parent="1">
          <mxGeometry x="50" y="180" width="120" height="60" as="geometry" />
        </mxCell>
        <mxCell id="ivMhix_a7MdcOeaRFhQM-11" value="" style="edgeStyle=orthogonalEdgeStyle;rounded=0;orthogonalLoop=1;jettySize=auto;html=1;" edge="1" parent="1" source="ivMhix_a7MdcOeaRFhQM-8" target="ivMhix_a7MdcOeaRFhQM-10">
          <mxGeometry relative="1" as="geometry" />
        </mxCell>
        <mxCell id="ivMhix_a7MdcOeaRFhQM-8" value="" style="rounded=0;whiteSpace=wrap;html=1;" vertex="1" parent="1">
          <mxGeometry x="250" y="180" width="120" height="60" as="geometry" />
        </mxCell>
        <mxCell id="ivMhix_a7MdcOeaRFhQM-19" value="" style="edgeStyle=orthogonalEdgeStyle;rounded=0;orthogonalLoop=1;jettySize=auto;html=1;" edge="1" parent="1" source="ivMhix_a7MdcOeaRFhQM-10" target="ivMhix_a7MdcOeaRFhQM-17">
          <mxGeometry relative="1" as="geometry" />
        </mxCell>
        <mxCell id="ivMhix_a7MdcOeaRFhQM-10" value="" style="rounded=0;whiteSpace=wrap;html=1;" vertex="1" parent="1">
          <mxGeometry x="450" y="180" width="120" height="60" as="geometry" />
        </mxCell>
        <mxCell id="ivMhix_a7MdcOeaRFhQM-16" value="" style="edgeStyle=orthogonalEdgeStyle;rounded=0;orthogonalLoop=1;jettySize=auto;html=1;" edge="1" parent="1" source="ivMhix_a7MdcOeaRFhQM-13" target="ivMhix_a7MdcOeaRFhQM-15">
          <mxGeometry relative="1" as="geometry" />
        </mxCell>
        <mxCell id="ivMhix_a7MdcOeaRFhQM-13" value="" style="rounded=0;whiteSpace=wrap;html=1;" vertex="1" parent="1">
          <mxGeometry x="50" y="320" width="120" height="60" as="geometry" />
        </mxCell>
        <mxCell id="ivMhix_a7MdcOeaRFhQM-18" value="" style="edgeStyle=orthogonalEdgeStyle;rounded=0;orthogonalLoop=1;jettySize=auto;html=1;" edge="1" parent="1" source="ivMhix_a7MdcOeaRFhQM-15" target="ivMhix_a7MdcOeaRFhQM-17">
          <mxGeometry relative="1" as="geometry" />
        </mxCell>
        <mxCell id="ivMhix_a7MdcOeaRFhQM-15" value="" style="rounded=0;whiteSpace=wrap;html=1;" vertex="1" parent="1">
          <mxGeometry x="250" y="320" width="120" height="60" as="geometry" />
        </mxCell>
        <mxCell id="ivMhix_a7MdcOeaRFhQM-17" value="" style="rounded=0;whiteSpace=wrap;html=1;" vertex="1" parent="1">
          <mxGeometry x="450" y="320" width="120" height="60" as="geometry" />
        </mxCell>
        <mxCell id="ivMhix_a7MdcOeaRFhQM-20" value="User Executes internsctl" style="text;html=1;strokeColor=none;fillColor=none;align=center;verticalAlign=middle;whiteSpace=wrap;rounded=0;" vertex="1" parent="1">
          <mxGeometry x="70" y="50" width="80" height="40" as="geometry" />
        </mxCell>
        <mxCell id="ivMhix_a7MdcOeaRFhQM-21" value="Parse Command and Options" style="text;html=1;strokeColor=none;fillColor=none;align=center;verticalAlign=middle;whiteSpace=wrap;rounded=0;" vertex="1" parent="1">
          <mxGeometry x="270" y="50" width="80" height="40" as="geometry" />
        </mxCell>
        <mxCell id="ivMhix_a7MdcOeaRFhQM-22" value="Display Versiion Information" style="text;html=1;strokeColor=none;fillColor=none;align=center;verticalAlign=middle;whiteSpace=wrap;rounded=0;" vertex="1" parent="1">
          <mxGeometry x="480" y="55" width="60" height="30" as="geometry" />
        </mxCell>
        <mxCell id="ivMhix_a7MdcOeaRFhQM-23" value="Execute Command Logic" style="text;html=1;strokeColor=none;fillColor=none;align=center;verticalAlign=middle;whiteSpace=wrap;rounded=0;" vertex="1" parent="1">
          <mxGeometry x="280" y="195" width="60" height="30" as="geometry" />
        </mxCell>
        <mxCell id="ivMhix_a7MdcOeaRFhQM-24" value="Display Help Information&lt;br&gt;" style="text;html=1;strokeColor=none;fillColor=none;align=center;verticalAlign=middle;whiteSpace=wrap;rounded=0;" vertex="1" parent="1">
          <mxGeometry x="480" y="195" width="60" height="30" as="geometry" />
        </mxCell>
        <mxCell id="ivMhix_a7MdcOeaRFhQM-25" value="Determine Command and Subcomand" style="text;html=1;strokeColor=none;fillColor=none;align=center;verticalAlign=middle;whiteSpace=wrap;rounded=0;" vertex="1" parent="1">
          <mxGeometry x="80" y="195" width="60" height="30" as="geometry" />
        </mxCell>
        <mxCell id="ivMhix_a7MdcOeaRFhQM-26" value="Output Result or Error" style="text;html=1;strokeColor=none;fillColor=none;align=center;verticalAlign=middle;whiteSpace=wrap;rounded=0;" vertex="1" parent="1">
          <mxGeometry x="280" y="335" width="60" height="30" as="geometry" />
        </mxCell>
        <mxCell id="ivMhix_a7MdcOeaRFhQM-27" value="Perform Task based on command" style="text;html=1;strokeColor=none;fillColor=none;align=center;verticalAlign=middle;whiteSpace=wrap;rounded=0;" vertex="1" parent="1">
          <mxGeometry x="80" y="335" width="60" height="30" as="geometry" />
        </mxCell>
        <mxCell id="ivMhix_a7MdcOeaRFhQM-29" value="Display Help Information" style="text;html=1;strokeColor=none;fillColor=none;align=center;verticalAlign=middle;whiteSpace=wrap;rounded=0;" vertex="1" parent="1">
          <mxGeometry x="480" y="335" width="60" height="30" as="geometry" />
        </mxCell>
      </root>
    </mxGraphModel>
  </diagram>
</mxfile>
